<svg aria-hidden="true" style="position: absolute; width: 0; height: 0; overflow: hidden;" version="1.1" xmlns="http://www.w3.org/2000/svg" xmlns:xlink="http://www.w3.org/1999/xlink">
<defs>
<symbol id="icon-customer6" viewBox="0 0 50 24">
<path d="M25.293 11.418c-0.236-0.315-0.349-0.686-0.323-1.061v-1.538c0-0.471 0.107-0.83 0.321-1.075s0.581-0.367 1.102-0.366c0.489 0 0.836 0.104 1.042 0.313 0.224 0.266 0.333 0.592 0.308 0.92v0.361h-0.875v-0.366c0.003-0.12-0.005-0.24-0.025-0.358-0.013-0.081-0.057-0.156-0.125-0.213-0.090-0.061-0.203-0.091-0.317-0.083-0.12-0.008-0.239 0.024-0.333 0.088-0.076 0.063-0.127 0.145-0.145 0.235-0.025 0.126-0.037 0.253-0.034 0.38v1.866c-0.014 0.18 0.025 0.36 0.112 0.524 0.044 0.055 0.104 0.099 0.175 0.127s0.149 0.038 0.226 0.029c0.112 0.008 0.223-0.022 0.31-0.084 0.071-0.061 0.117-0.141 0.13-0.227 0.020-0.124 0.030-0.249 0.027-0.374v-0.379h0.875v0.346c0.025 0.342-0.082 0.682-0.303 0.967-0.201 0.228-0.544 0.343-1.047 0.343s-0.884-0.122-1.1-0.375z"></path>
<path d="M28.937 11.433c-0.221-0.239-0.332-0.588-0.332-1.050v-1.617c0-0.457 0.111-0.802 0.332-1.037s0.591-0.351 1.109-0.35c0.515 0 0.882 0.117 1.103 0.35 0.221 0.235 0.333 0.58 0.333 1.037v1.617c0 0.457-0.112 0.807-0.337 1.048s-0.591 0.361-1.1 0.361c-0.509 0-0.886-0.122-1.109-0.36zM30.453 11.045c0.079-0.15 0.115-0.314 0.105-0.479v-1.98c0.010-0.161-0.025-0.322-0.103-0.469-0.044-0.057-0.106-0.101-0.179-0.129s-0.152-0.037-0.231-0.027c-0.079-0.009-0.159 0-0.231 0.028s-0.135 0.072-0.18 0.129c-0.080 0.146-0.116 0.308-0.105 0.469v1.99c-0.011 0.165 0.025 0.329 0.105 0.479 0.051 0.050 0.114 0.091 0.185 0.119s0.147 0.042 0.225 0.042c0.078 0 0.154-0.014 0.225-0.042s0.134-0.068 0.185-0.119v-0.009z"></path>
<path d="M32.535 7.426h0.942l0.708 2.984 0.725-2.984h0.917l0.092 4.308h-0.678l-0.072-2.994-0.699 2.994h-0.544l-0.725-3.005-0.067 3.005h-0.685l0.085-4.308z"></path>
<path d="M36.976 7.426h1.468c0.846 0 1.268 0.408 1.268 1.223 0 0.781-0.445 1.171-1.335 1.17h-0.5v1.915h-0.906l0.005-4.308zM38.23 9.267c0.089 0.010 0.18 0.003 0.266-0.021s0.165-0.063 0.232-0.115c0.104-0.146 0.15-0.316 0.13-0.486 0.005-0.131-0.010-0.263-0.044-0.391-0.013-0.043-0.036-0.083-0.067-0.118s-0.070-0.065-0.115-0.087c-0.126-0.052-0.265-0.076-0.404-0.069h-0.352v1.287h0.352z"></path>
<path d="M41.018 7.426h0.973l0.998 4.308h-0.844l-0.197-0.993h-0.868l-0.203 0.993h-0.857l0.998-4.308zM41.85 10.241l-0.339-1.808-0.339 1.808h0.678z"></path>
<path d="M43.796 7.426h0.634l1.214 2.457v-2.457h0.752v4.308h-0.603l-1.221-2.565v2.565h-0.777l0.002-4.308z"></path>
<path d="M48.157 10.091l-1.009-2.659h0.85l0.616 1.708 0.578-1.708h0.832l-0.997 2.659v1.642h-0.87v-1.642z"></path>
<path d="M26.692 13.617v0.225h-0.739v1.75h-0.31v-1.75h-0.743v-0.225h1.792z"></path>
<path d="M29.009 15.593h-0.239c-0.024 0.001-0.048-0.005-0.067-0.019-0.018-0.011-0.032-0.027-0.040-0.045l-0.214-0.469h-1.025l-0.214 0.469c-0.006 0.020-0.017 0.038-0.033 0.053-0.019 0.013-0.043 0.020-0.067 0.019h-0.239l0.906-1.976h0.315l0.917 1.968zM27.509 14.859h0.855l-0.362-0.804c-0.027-0.061-0.049-0.123-0.067-0.186-0.013 0.038-0.024 0.073-0.034 0.105l-0.033 0.083-0.359 0.802z"></path>
<path d="M30.571 15.399c0.057 0.003 0.114 0.003 0.17 0 0.049-0.004 0.098-0.012 0.145-0.023 0.044-0.009 0.088-0.021 0.13-0.036 0.040-0.014 0.080-0.031 0.121-0.048v-0.444h-0.362c-0.009 0-0.018-0.001-0.026-0.003s-0.016-0.007-0.023-0.012c-0.006-0.004-0.011-0.010-0.014-0.016s-0.005-0.013-0.004-0.020v-0.152h0.703v0.757c-0.057 0.035-0.118 0.067-0.181 0.094-0.065 0.028-0.132 0.050-0.201 0.067-0.074 0.019-0.15 0.032-0.226 0.041-0.088 0.008-0.176 0.013-0.264 0.012-0.156 0.001-0.311-0.024-0.457-0.073-0.136-0.047-0.259-0.117-0.362-0.207-0.101-0.090-0.18-0.196-0.234-0.313-0.057-0.131-0.085-0.27-0.083-0.41-0.002-0.141 0.026-0.281 0.082-0.413 0.052-0.117 0.132-0.224 0.234-0.313 0.103-0.089 0.227-0.159 0.362-0.205 0.155-0.050 0.32-0.075 0.486-0.074 0.084-0 0.169 0.006 0.252 0.017 0.074 0.010 0.146 0.027 0.216 0.050 0.063 0.021 0.124 0.047 0.181 0.078 0.056 0.031 0.108 0.065 0.158 0.103l-0.087 0.122c-0.007 0.011-0.017 0.021-0.029 0.027s-0.027 0.010-0.041 0.010c-0.020-0.001-0.040-0.006-0.056-0.016-0.027-0.013-0.056-0.028-0.089-0.047-0.039-0.021-0.079-0.039-0.121-0.053-0.054-0.019-0.11-0.033-0.167-0.044-0.076-0.012-0.153-0.018-0.23-0.017-0.12-0.001-0.238 0.017-0.35 0.055-0.101 0.035-0.192 0.088-0.266 0.156-0.075 0.071-0.132 0.155-0.169 0.246-0.081 0.214-0.081 0.445 0 0.659 0.040 0.093 0.101 0.178 0.181 0.249 0.074 0.068 0.164 0.121 0.265 0.156 0.115 0.034 0.237 0.047 0.359 0.039z"></path>
<path d="M33.459 15.367h0.989v0.225h-1.292v-1.976h0.31l-0.007 1.75z"></path>
<path d="M35.478 15.592h-0.31v-1.976h0.31v1.976z"></path>
<path d="M36.63 13.626c0.018 0.009 0.034 0.021 0.047 0.036l1.324 1.489c-0.002-0.023-0.002-0.047 0-0.070 0-0.022 0-0.044 0-0.064v-1.408h0.27v1.984h-0.156c-0.023 0.002-0.046-0.002-0.067-0.011-0.019-0.010-0.035-0.023-0.049-0.038l-1.323-1.488c0 0.023 0 0.045 0 0.067s0 0.042 0 0.061v1.408h-0.259v-1.976h0.161c0.017 0 0.035 0.003 0.051 0.009z"></path>
<path d="M40.553 13.617v0.217h-1.098v0.652h0.89v0.21h-0.89v0.674h1.098v0.217h-1.417v-1.971h1.417z"></path>
<path d="M8.086 1.416l13.757 3.372v11.818l-13.757-3.371v-11.819zM7.204 0.409v13.401l15.52 3.806v-13.399l-15.52-3.807z"></path>
<path d="M15.522 23.836l-15.522-3.809v-13.399l15.522 3.807v13.401z"></path>
<path d="M7.461 1.265l13.578 3.33-5.774 4.987-13.58-3.332 5.776-4.985zM7.204 0.409l-7.204 6.219 15.522 3.807 7.202-6.219-15.52-3.807z"></path>
<path d="M16.395 23.082l6.329-5.465-6.329-1.553v7.018z"></path>
</symbol>
<symbol id="icon-customer5" viewBox="0 0 32 24">
<path d="M2.429 19.78c0.124 0.141 0.191 0.318 0.187 0.499 0.006 0.118-0.016 0.236-0.067 0.345s-0.127 0.206-0.223 0.285c-0.242 0.167-0.541 0.249-0.843 0.23h-1.483v-3.162h1.452c0.287-0.017 0.571 0.057 0.805 0.21 0.094 0.072 0.168 0.163 0.217 0.265s0.071 0.214 0.065 0.326c0.009 0.174-0.051 0.346-0.169 0.483-0.113 0.126-0.268 0.213-0.442 0.247 0.197 0.033 0.374 0.129 0.501 0.27zM0.69 19.302h0.621c0.141 0.010 0.281-0.028 0.395-0.105 0.047-0.039 0.083-0.087 0.106-0.14s0.032-0.111 0.027-0.169c0.004-0.057-0.005-0.115-0.028-0.168s-0.058-0.102-0.104-0.141c-0.117-0.079-0.261-0.117-0.407-0.107h-0.611v0.829zM1.766 20.515c0.050-0.040 0.089-0.089 0.114-0.145s0.037-0.116 0.032-0.176c0.004-0.061-0.008-0.122-0.034-0.178s-0.066-0.106-0.116-0.146c-0.121-0.082-0.271-0.123-0.422-0.114h-0.651v0.87h0.66c0.148 0.008 0.295-0.031 0.417-0.11z"></path>
<path d="M5.398 21.139l-0.808-1.236h-0.304v1.236h-0.695v-3.162h1.316c0.332-0.021 0.66 0.075 0.916 0.269 0.184 0.172 0.295 0.398 0.313 0.638s-0.058 0.478-0.215 0.671c-0.162 0.17-0.384 0.284-0.628 0.321l0.86 1.263h-0.756zM4.286 19.472h0.568c0.395 0 0.592-0.16 0.592-0.479 0.004-0.065-0.007-0.13-0.032-0.192s-0.064-0.117-0.113-0.164c-0.125-0.095-0.285-0.141-0.447-0.128h-0.575l0.007 0.962z"></path>
<path d="M9.197 20.502h-1.385l-0.245 0.636h-0.729l1.272-3.126h0.788l1.267 3.126h-0.729l-0.24-0.636zM9.011 20.024l-0.506-1.334-0.506 1.334h1.012z"></path>
<path d="M13.952 21.139h-0.69l-1.547-2.15v2.15h-0.688v-3.162h0.688l1.547 2.162v-2.162h0.69v3.162z"></path>
<path d="M17.889 20.382c-0.143 0.239-0.36 0.433-0.624 0.558-0.3 0.139-0.634 0.207-0.97 0.199h-1.228v-3.162h1.228c0.336-0.008 0.669 0.059 0.97 0.195 0.264 0.122 0.482 0.314 0.624 0.551 0.142 0.257 0.216 0.541 0.216 0.829s-0.074 0.572-0.216 0.829zM17.1 20.306c0.197-0.21 0.305-0.478 0.305-0.755s-0.108-0.544-0.305-0.754c-0.238-0.19-0.548-0.287-0.864-0.269h-0.479v2.046h0.479c0.315 0.018 0.626-0.079 0.864-0.269z"></path>
<path d="M9.628 0.392c0 0 8.905 3.078 8.716 7.533v7.534c0 0-8.898-3.080-8.713-7.534l-0.003-7.533z"></path>
<path d="M26.278 13.694c1.682-1.060 3.627-1.716 5.658-1.909v-2.358c-2.34 0.826-4.325 2.323-5.658 4.268z"></path>
<path d="M25.267 14.405c1.377-2.538 3.763-4.496 6.668-5.472v-6.796c0 0-12.682 4.385-12.413 10.728v10.727c0 0 0.565-0.196 1.454-0.564 0-0.343 0-0.689 0.041-1.036 0.262-2.945 1.791-5.674 4.251-7.587z"></path>
<path d="M24.061 18.39c0.067-0.744 0.215-1.48 0.444-2.196-1.531 1.652-2.459 3.702-2.652 5.861-0.019 0.204-0.029 0.408-0.034 0.618 0.72-0.317 1.559-0.712 2.439-1.177-0.225-1.022-0.291-2.067-0.197-3.106z"></path>
<path d="M24.566 18.428c-0.084 0.94-0.032 1.886 0.157 2.813 3.465-1.898 7.358-4.831 7.208-8.376v-0.309c-2.475 0.254-4.791 1.244-6.592 2.82-0.422 0.977-0.682 2.005-0.773 3.052z"></path>
</symbol>
<symbol id="icon-customer4" viewBox="0 0 49 24">
<path d="M7.512 7.487h-0.002c-1.37 0-2.481 0.987-2.481 2.205v0.001c0 1.218 1.111 2.205 2.481 2.205h0.002c1.37 0 2.481-0.987 2.481-2.205v-0.001c0-1.218-1.111-2.205-2.481-2.205z"></path>
<path d="M25.826 6.782c-0.004-1.691-0.762-3.313-2.107-4.509s-3.17-1.87-5.073-1.874v0c-1.904 0.003-3.729 0.676-5.075 1.873s-2.105 2.818-2.108 4.51v9.327c0 0 14.362-1.422 14.364-9.326v-0.001z"></path>
<path d="M0 19.171c0.003 1.177 0.531 2.305 1.467 3.137s2.205 1.301 3.529 1.305c1.324-0.003 2.593-0.472 3.529-1.304s1.464-1.959 1.468-3.136v-6.49c0 0-9.993 0.99-9.993 6.489zM4.997 20.334c-0.259 0-0.512-0.068-0.727-0.196s-0.383-0.309-0.482-0.522c-0.099-0.212-0.125-0.446-0.074-0.672s0.175-0.433 0.358-0.595 0.416-0.273 0.67-0.318c0.254-0.045 0.517-0.022 0.756 0.066s0.443 0.237 0.587 0.428c0.144 0.191 0.221 0.416 0.221 0.646 0.001 0.153-0.033 0.305-0.098 0.446s-0.162 0.27-0.283 0.379c-0.122 0.108-0.266 0.195-0.425 0.253s-0.33 0.089-0.502 0.089v-0.004z"></path>
<path d="M15.096 19.694h-0.964v0.996h-0.502v-2.437h1.587v0.407h-1.085v0.629h0.964v0.405zM17.51 19.526c0 0.24-0.042 0.45-0.127 0.631s-0.206 0.32-0.365 0.419c-0.157 0.098-0.338 0.147-0.542 0.147-0.202 0-0.382-0.049-0.541-0.146s-0.281-0.235-0.368-0.415c-0.087-0.181-0.131-0.388-0.132-0.623v-0.121c0-0.24 0.043-0.451 0.129-0.633 0.087-0.183 0.209-0.323 0.367-0.42 0.159-0.098 0.339-0.147 0.542-0.147s0.383 0.049 0.541 0.147c0.158 0.097 0.281 0.237 0.367 0.42 0.087 0.182 0.131 0.392 0.131 0.631v0.109zM17.001 19.416c0-0.256-0.046-0.45-0.137-0.583s-0.222-0.199-0.392-0.199c-0.169 0-0.299 0.066-0.39 0.198-0.091 0.131-0.138 0.323-0.139 0.576v0.119c0 0.249 0.046 0.442 0.137 0.579s0.223 0.206 0.395 0.206c0.169 0 0.298-0.066 0.388-0.198 0.090-0.133 0.136-0.326 0.137-0.579v-0.119zM19.139 20.050c0-0.095-0.033-0.167-0.1-0.218-0.067-0.051-0.187-0.105-0.362-0.161-0.174-0.057-0.312-0.113-0.414-0.167-0.277-0.15-0.415-0.351-0.415-0.604 0-0.132 0.037-0.249 0.11-0.352 0.075-0.104 0.181-0.185 0.32-0.243 0.139-0.058 0.296-0.087 0.469-0.087 0.174 0 0.329 0.032 0.465 0.095 0.136 0.063 0.242 0.151 0.316 0.266 0.076 0.115 0.114 0.246 0.114 0.392h-0.502c0-0.112-0.035-0.198-0.105-0.259-0.070-0.062-0.169-0.094-0.296-0.094-0.123 0-0.218 0.026-0.286 0.079-0.068 0.051-0.102 0.119-0.102 0.204 0 0.079 0.040 0.146 0.119 0.199 0.080 0.054 0.198 0.104 0.353 0.151 0.286 0.086 0.494 0.193 0.624 0.32s0.196 0.286 0.196 0.475c0 0.211-0.080 0.377-0.239 0.497-0.16 0.119-0.374 0.179-0.645 0.179-0.187 0-0.358-0.034-0.512-0.102-0.154-0.069-0.272-0.163-0.353-0.283-0.080-0.119-0.121-0.258-0.121-0.415h0.504c0 0.269 0.161 0.403 0.482 0.403 0.119 0 0.213-0.024 0.28-0.072 0.067-0.049 0.1-0.117 0.1-0.204zM21.819 18.659h-0.747v2.031h-0.502v-2.031h-0.737v-0.407h1.985v0.407zM23.573 19.633h-0.964v0.653h1.132v0.403h-1.634v-2.437h1.631v0.407h-1.128v0.581h0.964v0.393zM24.938 19.797h-0.4v0.892h-0.502v-2.437h0.906c0.288 0 0.51 0.064 0.666 0.193s0.234 0.31 0.234 0.544c0 0.166-0.036 0.305-0.109 0.417-0.071 0.111-0.18 0.199-0.326 0.265l0.527 0.996v0.023h-0.539l-0.457-0.892zM24.538 19.391h0.405c0.126 0 0.224-0.032 0.293-0.095 0.069-0.065 0.104-0.153 0.104-0.266 0-0.115-0.033-0.205-0.099-0.271-0.065-0.066-0.165-0.099-0.3-0.099h-0.403v0.732zM27.581 19.831v0.859h-0.502v-2.437h0.951c0.183 0 0.344 0.033 0.482 0.1 0.139 0.067 0.247 0.162 0.321 0.286 0.075 0.123 0.112 0.263 0.112 0.42 0 0.239-0.082 0.427-0.246 0.566-0.163 0.137-0.389 0.206-0.678 0.206h-0.44zM27.581 19.424h0.449c0.133 0 0.234-0.031 0.303-0.094 0.070-0.063 0.105-0.152 0.105-0.268 0-0.119-0.035-0.216-0.105-0.29s-0.167-0.112-0.291-0.114h-0.46v0.765zM30.759 19.633h-0.964v0.653h1.132v0.403h-1.634v-2.437h1.631v0.407h-1.128v0.581h0.964v0.393zM33.089 18.659h-0.747v2.031h-0.502v-2.031h-0.737v-0.407h1.985v0.407zM34.844 19.633h-0.964v0.653h1.132v0.403h-1.634v-2.437h1.631v0.407h-1.128v0.581h0.964v0.393zM36.208 19.797h-0.4v0.892h-0.502v-2.437h0.906c0.288 0 0.51 0.064 0.666 0.193s0.234 0.31 0.234 0.544c0 0.166-0.036 0.305-0.109 0.417-0.071 0.111-0.18 0.199-0.326 0.265l0.527 0.996v0.023h-0.539l-0.457-0.892zM35.808 19.391h0.405c0.126 0 0.224-0.032 0.293-0.095 0.069-0.065 0.104-0.153 0.104-0.266 0-0.115-0.033-0.205-0.099-0.271-0.065-0.066-0.165-0.099-0.3-0.099h-0.403v0.732zM38.759 20.050c0-0.095-0.033-0.167-0.1-0.218-0.067-0.051-0.187-0.105-0.362-0.161-0.174-0.057-0.312-0.113-0.413-0.167-0.277-0.15-0.415-0.351-0.415-0.604 0-0.132 0.037-0.249 0.111-0.352 0.075-0.104 0.181-0.185 0.32-0.243 0.14-0.058 0.296-0.087 0.469-0.087 0.174 0 0.329 0.032 0.465 0.095 0.136 0.063 0.242 0.151 0.316 0.266 0.076 0.115 0.114 0.246 0.114 0.392h-0.502c0-0.112-0.035-0.198-0.105-0.259-0.070-0.062-0.169-0.094-0.296-0.094-0.123 0-0.218 0.026-0.286 0.079-0.068 0.051-0.102 0.119-0.102 0.204 0 0.079 0.040 0.146 0.119 0.199 0.080 0.054 0.198 0.104 0.353 0.151 0.286 0.086 0.494 0.193 0.624 0.32s0.196 0.286 0.196 0.475c0 0.211-0.080 0.377-0.239 0.497-0.16 0.119-0.374 0.179-0.645 0.179-0.188 0-0.358-0.034-0.512-0.102-0.154-0.069-0.272-0.163-0.353-0.283-0.080-0.119-0.121-0.258-0.121-0.415h0.504c0 0.269 0.161 0.403 0.482 0.403 0.119 0 0.213-0.024 0.28-0.072 0.067-0.049 0.1-0.117 0.1-0.204z"></path>
</symbol>
<symbol id="icon-customer3" viewBox="0 0 26 24">
<path d="M4.232 23.487c0.009 0 0.018 0.002 0.026 0.005s0.016 0.008 0.022 0.014l0.125 0.119c-0.097 0.096-0.216 0.174-0.351 0.226-0.157 0.057-0.327 0.085-0.497 0.081-0.16 0.003-0.319-0.023-0.467-0.076-0.134-0.049-0.254-0.121-0.352-0.214-0.1-0.096-0.178-0.208-0.227-0.33-0.054-0.136-0.081-0.28-0.079-0.424-0.002-0.145 0.027-0.289 0.086-0.425 0.054-0.123 0.137-0.235 0.241-0.33 0.106-0.093 0.234-0.167 0.374-0.215 0.153-0.052 0.317-0.077 0.481-0.076 0.153-0.003 0.305 0.020 0.447 0.069 0.123 0.047 0.237 0.111 0.335 0.191l-0.104 0.127c-0.007 0.009-0.016 0.017-0.026 0.023-0.012 0.007-0.027 0.011-0.042 0.009-0.016-0.001-0.032-0.006-0.045-0.014l-0.056-0.034-0.078-0.043c-0.034-0.016-0.069-0.030-0.104-0.042-0.046-0.014-0.094-0.026-0.142-0.034-0.061-0.010-0.123-0.014-0.185-0.014-0.119-0.001-0.236 0.018-0.346 0.057-0.102 0.036-0.195 0.090-0.271 0.16-0.078 0.074-0.138 0.16-0.176 0.255-0.044 0.108-0.066 0.221-0.064 0.336-0.002 0.116 0.020 0.232 0.064 0.341 0.038 0.093 0.097 0.179 0.173 0.253 0.071 0.069 0.16 0.122 0.259 0.157 0.102 0.037 0.211 0.055 0.321 0.054 0.064 0.001 0.127-0.003 0.19-0.011 0.103-0.011 0.201-0.042 0.288-0.091 0.044-0.025 0.085-0.053 0.123-0.084 0.016-0.013 0.037-0.021 0.059-0.022z"></path>
<path d="M7.831 22.888c0.002 0.144-0.027 0.286-0.084 0.421-0.051 0.122-0.131 0.234-0.235 0.327s-0.229 0.167-0.368 0.215c-0.305 0.101-0.642 0.101-0.947 0-0.138-0.049-0.263-0.122-0.366-0.215-0.104-0.095-0.184-0.207-0.237-0.33-0.112-0.273-0.112-0.571 0-0.843 0.053-0.123 0.134-0.236 0.237-0.332 0.104-0.090 0.229-0.161 0.366-0.207 0.305-0.103 0.643-0.103 0.947 0 0.138 0.049 0.264 0.122 0.368 0.215 0.103 0.094 0.183 0.205 0.235 0.326 0.058 0.136 0.086 0.279 0.084 0.424zM7.504 22.888c0.002-0.115-0.018-0.229-0.059-0.338-0.035-0.093-0.092-0.18-0.167-0.253-0.073-0.070-0.163-0.124-0.263-0.16-0.222-0.074-0.467-0.074-0.689 0-0.1 0.036-0.19 0.090-0.263 0.16-0.076 0.073-0.133 0.159-0.168 0.253-0.079 0.22-0.079 0.457 0 0.677 0.035 0.094 0.092 0.18 0.168 0.253 0.073 0.069 0.163 0.123 0.263 0.158 0.222 0.072 0.467 0.072 0.689 0 0.1-0.035 0.19-0.089 0.263-0.158 0.075-0.074 0.131-0.16 0.167-0.253 0.042-0.109 0.062-0.224 0.059-0.338z"></path>
<path d="M10.286 23.243l0.033 0.076c0.012-0.027 0.023-0.051 0.036-0.076 0.012-0.025 0.025-0.050 0.041-0.074l0.796-1.257c0.016-0.022 0.030-0.035 0.045-0.039 0.021-0.006 0.043-0.008 0.065-0.007h0.235v2.045h-0.279v-1.504c0-0.019 0-0.041 0-0.064-0.002-0.023-0.002-0.047 0-0.070l-0.801 1.275c-0.010 0.019-0.026 0.035-0.047 0.047s-0.044 0.017-0.068 0.017h-0.045c-0.024 0-0.048-0.006-0.069-0.017s-0.037-0.028-0.047-0.047l-0.824-1.283c0 0.024 0 0.049 0 0.073s0 0.046 0 0.065v1.504h-0.27v-2.041h0.235c0.022-0.001 0.044 0.001 0.065 0.007 0.019 0.008 0.035 0.022 0.044 0.039l0.813 1.259c0.016 0.023 0.030 0.048 0.041 0.073z"></path>
<path d="M13.282 23.141v0.766h-0.312v-2.043h0.695c0.131-0.002 0.262 0.013 0.388 0.045 0.101 0.025 0.194 0.068 0.274 0.127 0.069 0.055 0.123 0.124 0.156 0.2 0.037 0.083 0.055 0.172 0.053 0.261 0.001 0.090-0.018 0.178-0.058 0.261-0.037 0.078-0.095 0.148-0.168 0.204-0.080 0.061-0.174 0.108-0.276 0.135-0.121 0.034-0.248 0.050-0.375 0.047l-0.377-0.005zM13.282 22.922h0.377c0.082 0.001 0.163-0.010 0.241-0.031 0.064-0.019 0.124-0.049 0.174-0.088 0.047-0.037 0.083-0.084 0.106-0.135 0.026-0.055 0.038-0.113 0.037-0.172 0.004-0.057-0.007-0.114-0.031-0.166s-0.061-0.1-0.109-0.139c-0.119-0.081-0.269-0.12-0.419-0.11h-0.377v0.842z"></path>
<path d="M17.47 23.91h-0.246c-0.025 0.001-0.049-0.006-0.069-0.019-0.018-0.013-0.032-0.029-0.041-0.047l-0.212-0.494h-1.064l-0.22 0.494c-0.008 0.018-0.022 0.034-0.039 0.046-0.020 0.014-0.045 0.021-0.070 0.020h-0.246l0.935-2.045h0.324l0.947 2.045zM15.928 23.151h0.879l-0.371-0.833c-0.028-0.063-0.052-0.127-0.070-0.192l-0.036 0.107c-0.011 0.032-0.023 0.062-0.034 0.087l-0.368 0.831z"></path>
<path d="M18.816 21.874c0.019 0.009 0.035 0.021 0.047 0.037l1.363 1.542c0-0.024 0-0.049 0-0.072s0-0.046 0-0.068v-1.448h0.279v2.045h-0.156c-0.022 0.001-0.044-0.004-0.064-0.012-0.019-0.010-0.036-0.023-0.050-0.038l-1.362-1.541c0.001 0.023 0.001 0.047 0 0.070 0 0.023 0 0.043 0 0.062v1.458h-0.279v-2.045h0.165c0.019-0 0.038 0.003 0.056 0.009z"></path>
<path d="M22.802 23.096v0.812h-0.312v-0.812l-0.862-1.232h0.279c0.024-0.001 0.048 0.005 0.067 0.018 0.017 0.013 0.031 0.029 0.042 0.046l0.539 0.795c0.022 0.034 0.041 0.065 0.056 0.095s0.028 0.058 0.039 0.087l0.040-0.088c0.015-0.032 0.033-0.063 0.053-0.093l0.531-0.8c0.011-0.016 0.025-0.031 0.041-0.043 0.018-0.014 0.042-0.021 0.067-0.020h0.282l-0.863 1.237z"></path>
<path d="M10.132 18.432c0.136 0.015 0.273 0.027 0.411 0.038 2.102-0.817 3.881-2.154 5.113-3.845s1.864-3.659 1.816-5.659l-2.317-2.013c0.471 2.13 0.251 4.332-0.636 6.359s-2.406 3.8-4.387 5.12z"></path>
<path d="M9.305 18.338l0.062 0.011c2.117-1.315 3.73-3.152 4.632-5.273s1.051-4.428 0.428-6.623l-3.3-2.867c1.335 2.357 1.872 4.994 1.549 7.605s-1.492 5.090-3.372 7.146z"></path>
<path  d="M20.496 11.329c-0.561 2.198-1.922 4.18-3.883 5.653-0.573 0.432-1.19 0.818-1.845 1.151 1.596-0.408 3.063-1.128 4.289-2.107s2.175-2.188 2.777-3.535l-1.338-1.161z"></path>
<path  d="M19.971 11.006l-1.905-1.656c-0.036 1.887-0.654 3.732-1.789 5.342s-2.745 2.926-4.663 3.813h0.009c0.427-0 0.855-0.022 1.279-0.066 1.793-0.636 3.377-1.647 4.61-2.944s2.078-2.839 2.459-4.489z"></path>
<path  d="M9.581 2.378l-2.273-1.978c-2.032 0.682-3.78 1.882-5.014 3.441s-1.898 3.407-1.905 5.299v0c0.008 2.091 0.818 4.121 2.302 5.767s3.559 2.816 5.894 3.322c2.085-2.207 3.305-4.934 3.484-7.785s-0.693-5.677-2.489-8.068z"></path>
<path  d="M25.223 10.701c-0.008-2.481-1.146-4.859-3.166-6.614s-4.756-2.744-7.612-2.751c-1.32-0.001-2.628 0.21-3.859 0.624l13.917 12.092c0.477-1.069 0.721-2.205 0.72-3.352z"></path>
</symbol>
<symbol id="icon-customer2" viewBox="0 0 27 24">
<path  d="M11.735 2.012h-0.094c-0.144-0.009-0.288-0.012-0.432-0.016v0h-0.312c-0.272 0-0.55 0.007-0.826 0.021-0.021-0.002-0.042-0.002-0.062 0-2.499 0.142-4.947 0.766-7.211 1.84l-0.297 0.143v15.183l0.694-0.235c0.609-0.209 1.258-0.398 1.929-0.572 1.815-0.466 3.678-0.713 5.551-0.738v1.995c-0.248 0.002-0.489 0.009-0.73 0.021h-0.057c-1.441 0.079-2.872 0.299-4.271 0.656-1.772 0.444-3.481 1.11-5.088 1.983v-19.472c1.668-0.973 3.465-1.704 5.338-2.171 1.644-0.424 3.333-0.642 5.031-0.649h0.293c0.35 0.009 0.692 0.024 1.013 0.049 0.845 0.059 1.684 0.193 2.507 0.399v1.963c-0.799-0.186-1.611-0.309-2.429-0.366-0.017-0.001-0.033-0.003-0.050-0.004-0.169-0.014-0.339-0.029-0.497-0.029zM15.191 4.019c0.435 0.033 0.886 0.049 1.343 0.049 1.784-0.007 3.56-0.234 5.289-0.678 1.771-0.445 3.48-1.112 5.086-1.984v19.125c-1.669 0.973-3.467 1.703-5.339 2.171-1.644 0.423-3.334 0.64-5.031 0.647-1.286 0.010-2.568-0.141-3.816-0.45v-19.249c0.295 0.068 0.598 0.131 0.907 0.183 0.507 0.085 1.041 0.148 1.561 0.187zM24.924 4.167l-0.694 0.234c-0.638 0.214-1.282 0.406-1.929 0.577-1.884 0.484-3.82 0.732-5.764 0.739-0.453 0-0.869-0.012-1.271-0.038l-0.553-0.037v15.618l0.475 0.042c0.441 0.038 0.895 0.058 1.353 0.058 1.532-0.006 3.056-0.204 4.54-0.588 1.221-0.306 2.41-0.733 3.547-1.275l0.297-0.143v-15.188z"></path>
</symbol>
<symbol id="icon-customer1" viewBox="0 0 21 24">
<path  d="M3.064 0l3.578 3.388-6.642-0.004v16.436h17.362v-6.284l3.574 3.384v-16.919h-17.872zM17.205 13.138l-10.146-9.605h10.146v9.605zM14.054 17.416h-11.307v-11.054h0.799v10.306h10.508v0.748zM5.417 22.008l-0.418 0.86-0.418-0.86h-0.35l0.61 1.147v0.668h0.317v-0.668l0.608-1.147h-0.349zM5.942 23.823l0.147-0.423h0.703l0.148 0.423h0.329l-0.687-1.815h-0.283l-0.686 1.815h0.328zM6.441 22.393l0.263 0.753h-0.526l0.263-0.753zM8.104 23.103c-0.046 0.070-0.069 0.147-0.069 0.231 0 0.153 0.054 0.277 0.161 0.373s0.252 0.142 0.431 0.142 0.334-0.049 0.464-0.146l0.102 0.121h0.352l-0.267-0.315c0.105-0.143 0.157-0.326 0.157-0.55h-0.263c0 0.122-0.025 0.233-0.076 0.333l-0.35-0.414 0.123-0.090c0.087-0.063 0.15-0.126 0.188-0.189s0.057-0.134 0.057-0.209c0-0.115-0.042-0.211-0.127-0.288s-0.192-0.117-0.324-0.117c-0.146 0-0.263 0.042-0.349 0.125s-0.13 0.195-0.13 0.337c0 0.058 0.014 0.118 0.041 0.181s0.078 0.138 0.148 0.227c-0.135 0.096-0.225 0.18-0.271 0.251zM8.923 23.504c-0.089 0.068-0.184 0.102-0.287 0.102-0.091 0-0.163-0.026-0.217-0.079s-0.081-0.121-0.081-0.204c0-0.097 0.050-0.184 0.15-0.259l0.039-0.027 0.396 0.467zM8.598 22.7c-0.086-0.106-0.128-0.193-0.128-0.263 0-0.061 0.017-0.111 0.052-0.151s0.082-0.060 0.141-0.060c0.055 0 0.1 0.017 0.136 0.051s0.054 0.074 0.054 0.121c0 0.071-0.026 0.13-0.077 0.176l-0.039 0.031-0.138 0.095zM11.552 23.686c0.125-0.109 0.196-0.26 0.214-0.454h-0.314c-0.017 0.13-0.056 0.222-0.118 0.278s-0.155 0.084-0.279 0.084c-0.135 0-0.239-0.052-0.309-0.155s-0.105-0.253-0.105-0.449v-0.161c0.002-0.194 0.039-0.34 0.112-0.44s0.18-0.151 0.317-0.151c0.118 0 0.207 0.029 0.268 0.087s0.1 0.151 0.115 0.282h0.314c-0.020-0.199-0.091-0.352-0.213-0.461s-0.283-0.163-0.484-0.163c-0.149 0-0.28 0.035-0.394 0.106s-0.2 0.171-0.261 0.302c-0.061 0.131-0.091 0.281-0.091 0.453v0.17c0.002 0.167 0.034 0.314 0.093 0.44s0.145 0.224 0.254 0.293c0.111 0.068 0.238 0.102 0.383 0.102 0.207 0 0.373-0.054 0.497-0.162zM13.406 23.432c0.062-0.135 0.092-0.291 0.092-0.469v-0.101c-0.001-0.177-0.032-0.332-0.095-0.465s-0.151-0.236-0.266-0.307c-0.114-0.071-0.245-0.107-0.393-0.107s-0.279 0.036-0.394 0.108c-0.114 0.071-0.202 0.175-0.266 0.31s-0.093 0.292-0.093 0.469v0.102c0.001 0.174 0.032 0.327 0.095 0.46s0.152 0.236 0.267 0.308c0.115 0.071 0.247 0.107 0.394 0.107 0.149 0 0.28-0.036 0.394-0.107s0.203-0.175 0.264-0.309zM13.068 22.406c0.076 0.107 0.115 0.261 0.115 0.463v0.095c0 0.204-0.038 0.36-0.113 0.466s-0.182 0.16-0.322 0.16c-0.138 0-0.246-0.054-0.324-0.163s-0.116-0.263-0.116-0.463v-0.105c0.002-0.195 0.041-0.346 0.117-0.453s0.184-0.161 0.32-0.161c0.14 0 0.247 0.054 0.323 0.161z"></path>
</symbol>
<symbol id="icon-linkedin" viewBox="0 0 24 24">
<path  d="M23.994 24v-0.001h0.006v-8.802c0-4.306-0.927-7.623-5.961-7.623-2.42 0-4.044 1.328-4.707 2.587h-0.070v-2.185h-4.773v16.023h4.97v-7.934c0-2.089 0.396-4.109 2.983-4.109 2.549 0 2.587 2.384 2.587 4.243v7.801h4.965z"></path>
<path  d="M0.396 7.977h4.976v16.023h-4.976v-16.023z"></path>
<path  d="M2.882 0c-1.591 0-2.882 1.291-2.882 2.882s1.291 2.909 2.882 2.909c1.591 0 2.882-1.318 2.882-2.909s-1.292-2.882-2.882-2.882v0z"></path>
</symbol>
<symbol id="icon-diagram1" viewBox="0 0 24 24">
<path fill="#2196f3" style="fill: var(--color2, #2196f3)" d="M11.194 11.223h0.8v3.598h-0.8v-3.598z"></path>
<path fill="#2196f3" style="fill: var(--color2, #2196f3)" d="M14.392 12.823h0.8v1.999h-0.8v-1.999z"></path>
<path fill="#2196f3" style="fill: var(--color2, #2196f3)" d="M7.996 14.022h0.8v0.8h-0.8v-0.8z"></path>
<path fill="#2196f3" style="fill: var(--color2, #2196f3)" d="M5.597 13.622h0.8v1.199h-0.8v-1.199z"></path>
<path fill="#212121" style="fill: var(--color3, #212121)" d="M1.199 21.218h19.19c0.662 0 1.199-0.537 1.199-1.199v-1.599c0-0.662-0.537-1.199-1.199-1.199h-0.4v-9.97l2.271-2.151c0.527 0.26 1.165 0.102 1.51-0.374s0.297-1.131-0.114-1.551-1.065-0.483-1.549-0.148c-0.483 0.335-0.655 0.969-0.407 1.502l-1.711 1.622v-0.922c0-0.662-0.537-1.199-1.199-1.199h-15.992c-0.662 0-1.199 0.537-1.199 1.199v11.994h-0.4c-0.662 0-1.199 0.537-1.199 1.199v1.599c0 0.662 0.537 1.199 1.199 1.199zM22.788 3.627c0.221 0 0.4 0.179 0.4 0.4s-0.179 0.4-0.4 0.4c-0.221 0-0.4-0.179-0.4-0.4s0.179-0.4 0.4-0.4zM2.399 5.227c0-0.221 0.179-0.4 0.4-0.4h15.992c0.221 0 0.4 0.179 0.4 0.4v1.679l-0.8 0.76v-1.639c0-0.221-0.179-0.4-0.4-0.4h-14.392c-0.221 0-0.4 0.179-0.4 0.4v9.995c0 0.221 0.179 0.4 0.4 0.4h14.392c0.221 0 0.4-0.179 0.4-0.4v-7.256l0.8-0.758v9.213h-16.791v-11.994zM5.997 10.424c-0.541-0.002-1.016 0.359-1.16 0.88s0.079 1.074 0.544 1.35c0.465 0.276 1.057 0.207 1.446-0.169l1.39 0.697c0.161 0.081 0.357 0.043 0.477-0.092l2.954-3.323 2.904 2.176c0.156 0.117 0.373 0.104 0.515-0.029l2.524-2.391v6.098h-13.593v-9.195h13.593v1.995l-2.829 2.679-2.928-2.195c-0.166-0.125-0.4-0.101-0.539 0.054l-2.995 3.369-1.12-0.56c0.008-0.048 0.013-0.096 0.015-0.145 0-0.662-0.537-1.199-1.199-1.199zM6.397 11.623c0 0.221-0.179 0.4-0.4 0.4s-0.4-0.179-0.4-0.4c0-0.221 0.179-0.4 0.4-0.4s0.4 0.179 0.4 0.4zM8.795 18.020h3.998v0.4c0 0.221-0.179 0.4-0.4 0.4h-3.198c-0.221 0-0.4-0.179-0.4-0.4v-0.4zM0.8 18.42c0-0.221 0.179-0.4 0.4-0.4h6.796v0.4c0 0.662 0.537 1.199 1.199 1.199h3.198c0.662 0 1.199-0.537 1.199-1.199v-0.4h6.796c0.221 0 0.4 0.179 0.4 0.4v1.599c0 0.221-0.179 0.4-0.4 0.4h-19.19c-0.221 0-0.4-0.179-0.4-0.4v-1.599z"></path>
</symbol>
<symbol id="icon-clock1" viewBox="0 0 24 24">
<path fill="#212121" style="fill: var(--color3, #212121)" d="M23.472 11.476c-0.001-6.339-5.141-11.477-11.481-11.476s-11.477 5.142-11.476 11.481c0.001 4.993 3.23 9.413 7.987 10.932 0.045 0.014 0.093 0.022 0.14 0.021 0.090-0 0.179-0.024 0.257-0.070 0.101-0.060 0.177-0.155 0.212-0.267l2.899-9.188c0.792-0.004 1.432-0.65 1.427-1.442s-0.65-1.432-1.442-1.427c-0.213 0.001-0.424 0.050-0.615 0.144l-3.829-3.83c-0.19-0.183-0.493-0.178-0.676 0.012-0.179 0.185-0.179 0.479 0 0.665l3.827 3.832c-0.294 0.599-0.126 1.323 0.402 1.732l-2.762 8.755c-5.458-2.011-8.253-8.065-6.243-13.524s8.065-8.253 13.524-6.243 8.253 8.066 6.243 13.524c-0.982 2.667-3.001 4.823-5.597 5.98l-0.298-1.406c-0.055-0.258-0.309-0.424-0.567-0.369-0.081 0.017-0.157 0.056-0.219 0.111l-2.878 2.569c-0.197 0.176-0.215 0.478-0.039 0.675 0.057 0.064 0.13 0.112 0.212 0.138l3.674 1.173c0.251 0.081 0.521-0.057 0.602-0.309 0.026-0.079 0.030-0.164 0.013-0.246l-0.293-1.379c4.248-1.791 7.007-5.957 6.997-10.567v0zM11.994 10.998c0.264 0 0.478 0.214 0.478 0.478s-0.214 0.478-0.478 0.478c-0.264 0-0.478-0.214-0.478-0.478s0.214-0.478 0.478-0.478zM13.569 22.146l1.638-1.461 0.452 2.13-2.090-0.669z"></path>
<path fill="#2196f3" style="fill: var(--color2, #2196f3)" d="M11.516 2.389v0.957c0 0.264 0.214 0.478 0.478 0.478s0.478-0.214 0.478-0.478v-0.957c0-0.264-0.214-0.478-0.478-0.478s-0.478 0.214-0.478 0.478z"></path>
<path fill="#2196f3" style="fill: var(--color2, #2196f3)" d="M2.907 10.998c-0.264 0-0.478 0.214-0.478 0.478s0.214 0.478 0.478 0.478h0.957c0.264 0 0.478-0.214 0.478-0.478s-0.214-0.478-0.478-0.478h-0.957z"></path>
<path fill="#2196f3" style="fill: var(--color2, #2196f3)" d="M21.081 11.954c0.264 0 0.478-0.214 0.478-0.478s-0.214-0.478-0.478-0.478h-0.957c-0.264 0-0.478 0.214-0.478 0.478s0.214 0.478 0.478 0.478h0.957z"></path>
</symbol>
<symbol id="icon-antenna1" viewBox="0 0 24 24">
<path fill="#212121" style="fill: var(--color3, #212121)" d="M23.080 16.573l-6.332-6.379 0.703-3.462c0.181 0.071 0.374 0.108 0.569 0.109h0.005c0.894 0.011 1.628-0.706 1.638-1.6s-0.706-1.628-1.6-1.638c-0.894-0.011-1.628 0.706-1.638 1.6-0.002 0.191 0.029 0.382 0.094 0.562l-3.72 0.454-6.068-6.1c-0.074-0.076-0.176-0.119-0.282-0.12-0.105 0.001-0.206 0.042-0.28 0.116l-1.134 1.128c-0.156 0.156-0.156 0.409 0 0.566l0.61 0.619c-2.365 4.348-1.597 9.733 1.89 13.247 0.032 0.031 0.069 0.055 0.11 0.073-0.025 0.135-0.038 0.273-0.039 0.41v4.64h-4.8c-1.104 0.001-1.999 0.896-2 2v0.8c0 0.221 0.179 0.4 0.4 0.4h18.4c0.221 0 0.4-0.179 0.4-0.4v-0.8c-0.001-1.104-0.896-1.999-2-2h-4.8v-2.056c0.752 0.158 1.518 0.238 2.286 0.24 1.844-0.002 3.658-0.462 5.28-1.338l0.614 0.617c0.074 0.076 0.176 0.119 0.282 0.12 0.105-0.001 0.206-0.042 0.28-0.116l1.134-1.128c0.156-0.156 0.156-0.409 0-0.566zM17.46 4.675c0.313-0.312 0.82-0.31 1.131 0.003s0.31 0.82-0.003 1.131c-0.15 0.149-0.353 0.233-0.564 0.233h-0.002c-0.442-0.002-0.798-0.362-0.796-0.804 0.001-0.212 0.086-0.414 0.236-0.563h-0.002zM16.518 7.303l-0.449 2.209-0.882-0.887 1.33-1.322zM16.064 6.627l-1.44 1.432-1.114-1.12 2.554-0.312zM18.003 21.6c0.663 0 1.2 0.537 1.2 1.2v0.4h-17.6v-0.4c0-0.663 0.537-1.2 1.2-1.2h15.2zM12.403 20v0.8h-4v-0.8h4zM8.403 19.2v-3.040c0-0.97 0.897-1.76 2-1.76s2 0.79 2 1.76v3.040h-4zM13.203 17.928v-1.768c0-1.412-1.256-2.56-2.8-2.56-0.998-0.015-1.932 0.493-2.461 1.34-3.043-3.205-3.729-7.984-1.709-11.915l13.951 14.031c-2.154 1.096-4.624 1.404-6.982 0.872zM21.67 17.415l-15.793-15.886 0.566-0.564 5.951 5.985c0.003 0 0.004 0.005 0.007 0.007l9.836 9.894-0.568 0.564z"></path>
<path fill="#2196f3" style="fill: var(--color2, #2196f3)" d="M10.407 15.2h-0.004c-0.663-0.001-1.201 0.535-1.202 1.198s0.535 1.201 1.198 1.202h0.004c0.663 0.001 1.201-0.535 1.202-1.198s-0.535-1.201-1.198-1.202zM10.687 16.684c-0.075 0.075-0.177 0.117-0.284 0.116-0.221-0.001-0.399-0.181-0.398-0.402 0.001-0.106 0.043-0.207 0.118-0.282s0.175-0.116 0.28-0.116c0.221 0.001 0.399 0.181 0.398 0.402-0.001 0.106-0.043 0.207-0.118 0.282h0.004z"></path>
</symbol>
<symbol id="icon-astronaut1" viewBox="0 0 22 24">
<path fill="#2196f3" style="fill: var(--color2, #2196f3)" d="M22.268 4.008c-0.044-0.134-0.16-0.232-0.3-0.253l-1.33-0.194-0.595-1.206c-0.125-0.254-0.541-0.254-0.666 0l-0.595 1.206-1.331 0.194c-0.14 0.020-0.256 0.118-0.3 0.253s-0.007 0.282 0.094 0.381l0.963 0.939-0.227 1.325c-0.024 0.139 0.033 0.28 0.147 0.363 0.116 0.084 0.266 0.094 0.391 0.028l1.19-0.626 1.19 0.626c0.054 0.029 0.114 0.043 0.173 0.043 0.077 0 0.154-0.024 0.218-0.071 0.114-0.083 0.172-0.224 0.147-0.363l-0.227-1.325 0.963-0.939c0.101-0.099 0.137-0.246 0.094-0.381zM20.552 4.932c-0.087 0.085-0.127 0.208-0.107 0.329l0.133 0.776-0.697-0.366c-0.054-0.029-0.114-0.043-0.173-0.043s-0.118 0.014-0.173 0.043l-0.697 0.366 0.133-0.776c0.021-0.12-0.019-0.243-0.107-0.329l-0.564-0.55 0.779-0.113c0.121-0.017 0.225-0.094 0.28-0.203l0.348-0.706 0.348 0.706c0.054 0.11 0.159 0.186 0.28 0.203l0.779 0.113-0.563 0.55z"></path>
<path fill="#2196f3" style="fill: var(--color2, #2196f3)" d="M18.2 15.149h-0.743v0.743h0.743v-0.743z"></path>
<path fill="#2196f3" style="fill: var(--color2, #2196f3)" d="M18.2 16.635h-0.743v0.743h0.743v-0.743z"></path>
<path fill="#2196f3" style="fill: var(--color2, #2196f3)" d="M18.943 15.892h-0.743v0.743h0.743v-0.743z"></path>
<path fill="#2196f3" style="fill: var(--color2, #2196f3)" d="M17.457 15.892h-0.743v0.743h0.743v-0.743z"></path>
<path fill="#2196f3" style="fill: var(--color2, #2196f3)" d="M15.6 19.235h-0.743v0.743h0.743v-0.743z"></path>
<path fill="#2196f3" style="fill: var(--color2, #2196f3)" d="M15.6 20.721h-0.743v0.743h0.743v-0.743z"></path>
<path fill="#2196f3" style="fill: var(--color2, #2196f3)" d="M16.343 19.978h-0.743v0.743h0.743v-0.743z"></path>
<path fill="#2196f3" style="fill: var(--color2, #2196f3)" d="M14.857 19.978h-0.743v0.743h0.743v-0.743z"></path>
<path fill="#2196f3" style="fill: var(--color2, #2196f3)" d="M11.143 17.749h-0.743v0.743h0.743v-0.743z"></path>
<path fill="#2196f3" style="fill: var(--color2, #2196f3)" d="M11.143 19.235h-0.743v0.743h0.743v-0.743z"></path>
<path fill="#2196f3" style="fill: var(--color2, #2196f3)" d="M11.886 18.492h-0.743v0.743h0.743v-0.743z"></path>
<path fill="#2196f3" style="fill: var(--color2, #2196f3)" d="M10.4 18.492h-0.743v0.743h0.743v-0.743z"></path>
<path fill="#2196f3" style="fill: var(--color2, #2196f3)" d="M4.086 5.121h-0.743v0.743h0.743v-0.743z"></path>
<path fill="#2196f3" style="fill: var(--color2, #2196f3)" d="M4.086 6.606h-0.743v0.743h0.743v-0.743z"></path>
<path fill="#2196f3" style="fill: var(--color2, #2196f3)" d="M4.828 5.864h-0.743v0.743h0.743v-0.743z"></path>
<path fill="#2196f3" style="fill: var(--color2, #2196f3)" d="M3.343 5.864h-0.743v0.743h0.743v-0.743z"></path>
<path fill="#212121" style="fill: var(--color3, #212121)" d="M17.212 10.718c-0.2-0.27-0.494-0.444-0.828-0.491-0.335-0.048-0.666 0.040-0.933 0.245l-0.872 0.669-1.322 0.987-0.946-0.377c1.686-0.757 2.865-2.443 2.865-4.401 0-2.662-2.175-4.829-4.848-4.829s-4.848 2.166-4.848 4.829c0 0.965 0.289 1.862 0.78 2.617l-1.925-0.017c-0.001 0-0.002 0-0.003 0-0.006 0-0.011 0.003-0.016 0.003-0.037 0.002-0.073 0.009-0.108 0.022-0.009 0.003-0.018 0.005-0.027 0.009-0.004 0.002-0.009 0.002-0.013 0.004l-2.252 1.112c-0 0-0.001 0-0.001 0l-1.319 0.634c-0.014 0.006-0.029 0.015-0.044 0.024-0.526 0.35-0.705 1.037-0.417 1.599 0.153 0.299 0.415 0.519 0.735 0.619 0.124 0.039 0.25 0.058 0.376 0.058 0.202 0 0.402-0.049 0.585-0.147l0.966-0.514 1.577-0.814 0.945-0.006-3.79 3.772c-0 0-0.001 0-0.001 0.001l-0.932 0.929c-0.22 0.219-0.341 0.51-0.341 0.82s0.121 0.601 0.341 0.821c0.226 0.225 0.524 0.338 0.821 0.338s0.595-0.113 0.822-0.338l0.915-0.912 1.212-0.905 0.627 0.625-1.227 1.222c-0 0-0.001 0-0.001 0.001l-0.932 0.929c-0.22 0.219-0.341 0.51-0.341 0.82s0.121 0.601 0.341 0.821c0.226 0.225 0.524 0.338 0.822 0.338s0.595-0.113 0.822-0.338l2.425-2.414c0-0 0-0.001 0.001-0.001l0.703-0.696-0.003-0.003c0.004-0.004 0.011-0.006 0.015-0.011l3.598-3.941 2.417 0.344c0.017 0.003 0.035 0.004 0.052 0.004 0.045 0 0.088-0.011 0.13-0.027 0.012-0.004 0.023-0.010 0.035-0.016 0.013-0.007 0.027-0.010 0.040-0.019l2.238-1.486c0.008-0.006 0.013-0.015 0.020-0.020 0.009-0.007 0.020-0.010 0.028-0.018l0.885-0.829c0.461-0.432 0.524-1.139 0.148-1.645zM1.484 13.233c-0.121 0.065-0.258 0.078-0.389 0.036-0.13-0.040-0.235-0.129-0.297-0.249-0.112-0.218-0.047-0.484 0.149-0.628l0.915-0.44 0.313 0.914-0.691 0.367zM3.919 11.96l-1.078 0.557-0.306-0.894 1.411-0.697-0.028 1.033zM14.435 7.349c0 0.64-0.153 1.243-0.417 1.782l-2.912-1.323c-0.030-0.399-0.238-0.749-0.549-0.966l1.020-3.385c1.656 0.527 2.859 2.072 2.859 3.892zM6.225 7.349c0-2.253 1.842-4.086 4.105-4.086 0.176 0 0.348 0.015 0.519 0.036l-0.997 3.311c-0.013-0-0.026-0.004-0.040-0.004-0.719 0-1.304 0.583-1.304 1.3s0.585 1.3 1.304 1.3c0.484 0 0.901-0.267 1.127-0.658l2.69 1.222c-0.748 1.007-1.946 1.664-3.299 1.664-2.263 0-4.105-1.833-4.105-4.086zM10.373 7.906c0 0.307-0.252 0.557-0.561 0.557s-0.561-0.25-0.561-0.557c0-0.307 0.252-0.557 0.561-0.557s0.561 0.25 0.561 0.557zM1.717 18.37c-0.165 0.163-0.431 0.163-0.595 0-0.079-0.079-0.123-0.183-0.123-0.295s0.043-0.215 0.123-0.293l0.67-0.668 0.593 0.59-0.668 0.665zM3.955 20.97c-0.165 0.163-0.431 0.163-0.595 0-0.079-0.079-0.123-0.183-0.123-0.295s0.043-0.215 0.123-0.293l0.67-0.668 0.593 0.59-0.668 0.665zM6.38 18.554c-0 0-0.001 0-0.001 0.001l-1.229 1.226-0.593-0.59 1.228-1.222c0 0 0 0 0-0s0.001-0 0.001-0.001c0.028-0.028 0.045-0.061 0.062-0.094 0.005-0.010 0.014-0.018 0.018-0.028 0.012-0.029 0.013-0.059 0.018-0.090 0.002-0.017 0.010-0.033 0.010-0.051 0-0.025-0.009-0.049-0.014-0.074-0.004-0.022-0.004-0.045-0.013-0.066-0.014-0.035-0.038-0.066-0.064-0.096-0.007-0.008-0.010-0.019-0.017-0.026 0 0 0 0-0 0s-0-0.001-0.001-0.002l-1.119-1.114c-0.012-0.012-0.027-0.017-0.040-0.027-0.020-0.015-0.039-0.029-0.061-0.040s-0.043-0.017-0.065-0.023c-0.024-0.007-0.047-0.012-0.072-0.014-0.023-0.001-0.044 0.001-0.066 0.003-0.025 0.003-0.048 0.006-0.072 0.014s-0.044 0.019-0.066 0.031c-0.014 0.008-0.029 0.010-0.042 0.020l-1.235 0.922-0.627-0.625 1.671-1.662 3.037 2.987-0.646 0.64zM11.128 13.667c-0.011-0.002-0.021 0.003-0.032 0.002-0.027-0.001-0.053 0-0.080 0.005-0.021 0.004-0.041 0.008-0.061 0.015-0.024 0.008-0.045 0.019-0.067 0.033-0.021 0.013-0.040 0.026-0.058 0.043-0.009 0.008-0.020 0.012-0.028 0.020l-3.272 3.584-3.014-2.964 1.973-1.963c0.145-0.145 0.146-0.38 0.001-0.526-0.073-0.073-0.169-0.109-0.266-0.109v-0l-1.545 0.009 0.019-1.119 2.162 0.019c0.881 0.901 2.11 1.463 3.469 1.463 0.305 0 0.602-0.032 0.891-0.085 0.028 0.022 0.055 0.045 0.090 0.059l1.678 0.669 0.23 1.145-2.091-0.298zM13.943 13.791l-0.218-1.085 1.007-0.752 0.659 0.875-1.449 0.962zM16.557 11.82l-0.584 0.547-0.649-0.861 0.579-0.444c0.108-0.083 0.244-0.117 0.378-0.1 0.134 0.019 0.253 0.089 0.334 0.198 0.151 0.203 0.125 0.487-0.059 0.66z"></path>
<path fill="#212121" style="fill: var(--color3, #212121)" d="M9.473 13.772l-1.492-1.486c-0.144-0.144-0.379-0.144-0.524 0l-1.492 1.486c-0.070 0.070-0.109 0.165-0.109 0.263s0.039 0.194 0.109 0.263l1.492 1.486c0.072 0.072 0.168 0.108 0.262 0.108s0.19-0.036 0.262-0.108l1.492-1.486c0.070-0.070 0.11-0.165 0.11-0.263s-0.039-0.194-0.11-0.263zM7.719 14.997l-0.966-0.962 0.966-0.962 0.966 0.962-0.966 0.962z"></path>
<path fill="#212121" style="fill: var(--color3, #212121)" d="M11.954 4.389l-0.179 0.721c0.049 0.012 1.21 0.315 1.21 1.497h0.743c-0-1.405-1.16-2.065-1.774-2.218z"></path>
<path fill="#212121" style="fill: var(--color3, #212121)" d="M13.727 7.349h-0.743v0.743h0.743v-0.743z"></path>
</symbol>
<symbol id="icon-instagram" viewBox="0 0 24 24">
<path  d="M23.976 7.056c-0.056-1.275-0.262-2.152-0.558-2.912-0.305-0.806-0.774-1.528-1.388-2.128-0.6-0.61-1.327-1.083-2.124-1.383-0.764-0.295-1.636-0.502-2.911-0.558-1.285-0.061-1.693-0.075-4.951-0.075s-3.666 0.014-4.946 0.070c-1.275 0.056-2.152 0.263-2.911 0.558-0.807 0.305-1.528 0.774-2.129 1.388-0.609 0.6-1.083 1.327-1.383 2.124-0.295 0.764-0.502 1.636-0.558 2.911-0.061 1.285-0.075 1.693-0.075 4.951s0.014 3.666 0.070 4.946c0.056 1.275 0.263 2.152 0.558 2.912 0.305 0.806 0.778 1.528 1.388 2.128 0.6 0.609 1.327 1.083 2.124 1.383 0.764 0.295 1.636 0.502 2.912 0.558 1.28 0.056 1.688 0.070 4.946 0.070s3.666-0.014 4.946-0.070c1.275-0.056 2.152-0.262 2.911-0.558 1.613-0.624 2.888-1.899 3.512-3.512 0.295-0.764 0.502-1.636 0.558-2.912 0.056-1.28 0.070-1.688 0.070-4.946s-0.005-3.666-0.061-4.946zM21.815 16.855c-0.052 1.172-0.249 1.805-0.413 2.227-0.403 1.046-1.233 1.875-2.279 2.279-0.422 0.164-1.059 0.361-2.227 0.412-1.266 0.056-1.646 0.070-4.848 0.070s-3.587-0.014-4.848-0.070c-1.172-0.051-1.805-0.248-2.227-0.412-0.52-0.192-0.994-0.497-1.378-0.896-0.399-0.389-0.703-0.858-0.896-1.378-0.164-0.422-0.361-1.060-0.412-2.227-0.056-1.266-0.070-1.646-0.070-4.848s0.014-3.587 0.070-4.848c0.051-1.172 0.248-1.805 0.412-2.227 0.192-0.52 0.497-0.994 0.9-1.379 0.389-0.399 0.858-0.703 1.378-0.895 0.422-0.164 1.060-0.361 2.227-0.413 1.266-0.056 1.646-0.070 4.848-0.070 3.207 0 3.587 0.014 4.848 0.070 1.172 0.052 1.805 0.249 2.227 0.413 0.52 0.192 0.994 0.497 1.378 0.895 0.398 0.389 0.703 0.858 0.896 1.379 0.164 0.422 0.361 1.059 0.413 2.227 0.056 1.266 0.070 1.646 0.070 4.848s-0.014 3.577-0.070 4.843z"></path>
<path  d="M12.045 5.837c-3.404 0-6.165 2.761-6.165 6.165s2.762 6.165 6.165 6.165c3.404 0 6.165-2.761 6.165-6.165s-2.761-6.165-6.165-6.165zM12.045 16.002c-2.208 0-3.999-1.791-3.999-3.999s1.791-3.999 3.999-3.999c2.208 0 3.999 1.791 3.999 3.999s-1.791 3.999-3.999 3.999z"></path>
<path  d="M19.893 5.593c0 0.795-0.645 1.439-1.44 1.439s-1.439-0.644-1.439-1.439c0-0.795 0.644-1.439 1.439-1.439s1.44 0.644 1.44 1.439z"></path>
</symbol>
<symbol id="icon-facebook" viewBox="0 0 13 24">
<path  d="M9.997 3.985h2.191v-3.816c-0.378-0.052-1.678-0.169-3.192-0.169-3.159 0-5.323 1.987-5.323 5.639v3.361h-3.486v4.266h3.486v10.734h4.274v-10.733h3.345l0.531-4.266h-3.877v-2.939c0.001-1.233 0.333-2.077 2.051-2.077z"></path>
</symbol>
<symbol id="icon-twitter" viewBox="0 0 27 24">
<path  d="M26.667 3.732c-0.992 0.435-2.048 0.723-3.15 0.863 1.133-0.677 1.998-1.74 2.405-3.022-1.057 0.63-2.223 1.075-3.467 1.323-1.003-1.068-2.433-1.73-3.993-1.73-3.027 0-5.463 2.457-5.463 5.468 0 0.433 0.037 0.85 0.127 1.247-4.545-0.222-8.567-2.4-11.268-5.718-0.472 0.818-0.748 1.755-0.748 2.763 0 1.893 0.975 3.572 2.428 4.543-0.878-0.017-1.74-0.272-2.47-0.673 0 0.017 0 0.038 0 0.060 0 2.657 1.895 4.863 4.38 5.372-0.445 0.122-0.93 0.18-1.433 0.18-0.35 0-0.703-0.020-1.035-0.093 0.708 2.165 2.718 3.757 5.108 3.808-1.86 1.455-4.222 2.332-6.778 2.332-0.448 0-0.878-0.020-1.308-0.075 2.422 1.562 5.292 2.453 8.387 2.453 10.060 0 15.56-8.333 15.56-15.557 0-0.242-0.008-0.475-0.020-0.707 1.085-0.77 1.997-1.732 2.74-2.838z"></path>
</symbol>
</defs>
</svg>
